REM DIRINDEX 1\2,1\3,1\4,1\5,1\6
REM DIRNAME folder01,folder02,folder03,folder04,folder05,folder06
TITLE ""
FILE "Disc3Track68.mp3" MP3
  TRACK 01 AUDIO
    TITLE "3:cjc030_06121"
    INDEX 01 00:00:00
  TRACK 02 AUDIO
    TITLE "0:"
    INDEX 01 00:00:70
  TRACK 03 AUDIO
    TITLE "4:cjc030_06122"
    INDEX 01 00:01:03
  TRACK 04 AUDIO
    TITLE "0:"
    INDEX 01 00:02:30
  TRACK 05 AUDIO
    TITLE "5:cjc030_06123"
    INDEX 01 00:02:36
  TRACK 06 AUDIO
    TITLE "0:"
    INDEX 01 00:03:37
  TRACK 07 AUDIO
    TITLE "6:cjc030_06124"
    INDEX 01 00:03:51
  TRACK 08 AUDIO
    TITLE "0:"
    INDEX 01 00:08:36
  TRACK 09 AUDIO
    TITLE "3:cjc030_06125"
    INDEX 01 00:09:08
  TRACK 10 AUDIO
    TITLE "0:"
    INDEX 01 00:10:16
  TRACK 11 AUDIO
    TITLE "4:cjc030_06126"
    INDEX 01 00:10:23
  TRACK 12 AUDIO
    TITLE "0:"
    INDEX 01 00:11:23
  TRACK 13 AUDIO
    TITLE "5:cjc030_06127"
    INDEX 01 00:11:31
  TRACK 14 AUDIO
    TITLE "0:"
    INDEX 01 00:12:38
  TRACK 15 AUDIO
    TITLE "3:cjc030_06128"
    INDEX 01 00:13:22
  TRACK 16 AUDIO
    TITLE "0:"
    INDEX 01 00:14:33
  TRACK 17 AUDIO
    TITLE "4:cjc030_06129"
    INDEX 01 00:14:41
  TRACK 18 AUDIO
    TITLE "0:"
    INDEX 01 00:15:30
  TRACK 19 AUDIO
    TITLE "5:cjc030_06130"
    INDEX 01 00:15:40
  TRACK 20 AUDIO
    TITLE "0:"
    INDEX 01 00:16:51
  TRACK 21 AUDIO
    TITLE "6:cjc030_06131"
    INDEX 01 00:16:61
  TRACK 22 AUDIO
    TITLE "0:"
    INDEX 01 00:18:56
  TRACK 23 AUDIO
    TITLE "3:cjc030_06132"
    INDEX 01 00:19:30
  TRACK 24 AUDIO
    TITLE "0:"
    INDEX 01 00:20:34
  TRACK 25 AUDIO
    TITLE "4:cjc030_06133"
    INDEX 01 00:20:45
  TRACK 26 AUDIO
    TITLE "0:"
    INDEX 01 00:21:49
  TRACK 27 AUDIO
    TITLE "5:cjc030_06134"
    INDEX 01 00:21:58
  TRACK 28 AUDIO
    TITLE "0:"
    INDEX 01 00:22:64
  TRACK 29 AUDIO
    TITLE "3:cjc030_06135"
    INDEX 01 00:23:46
  TRACK 30 AUDIO
    TITLE "0:"
    INDEX 01 00:24:57
  TRACK 31 AUDIO
    TITLE "4:cjc030_06136"
    INDEX 01 00:24:63
  TRACK 32 AUDIO
    TITLE "0:"
    INDEX 01 00:26:09
  TRACK 33 AUDIO
    TITLE "5:cjc030_06137"
    INDEX 01 00:26:15
  TRACK 34 AUDIO
    TITLE "0:"
    INDEX 01 00:27:26
  TRACK 35 AUDIO
    TITLE "6:cjc030_06138"
    INDEX 01 00:27:39
  TRACK 36 AUDIO
    TITLE "0:"
    INDEX 01 00:31:04
  TRACK 37 AUDIO
    TITLE "3:cjc030_06139"
    INDEX 01 00:31:53
  TRACK 38 AUDIO
    TITLE "0:"
    INDEX 01 00:32:66
  TRACK 39 AUDIO
    TITLE "4:cjc030_06140"
    INDEX 01 00:32:74
  TRACK 40 AUDIO
    TITLE "0:"
    INDEX 01 00:34:30
  TRACK 41 AUDIO
    TITLE "5:cjc030_06141"
    INDEX 01 00:34:38
  TRACK 42 AUDIO
    TITLE "0:"
    INDEX 01 00:35:49
  TRACK 43 AUDIO
    TITLE "6:cjc030_06142"
    INDEX 01 00:35:61
  TRACK 44 AUDIO
    TITLE "0:"
    INDEX 01 00:38:55
  TRACK 45 AUDIO
    TITLE "3:cjc030_06143"
    INDEX 01 00:39:29
  TRACK 46 AUDIO
    TITLE "0:"
    INDEX 01 00:40:42
  TRACK 47 AUDIO
    TITLE "4:cjc030_06144"
    INDEX 01 00:40:50
  TRACK 48 AUDIO
    TITLE "0:"
    INDEX 01 00:41:44
  TRACK 49 AUDIO
    TITLE "5:cjc030_06145"
    INDEX 01 00:41:53
  TRACK 50 AUDIO
    TITLE "0:"
    INDEX 01 00:42:63
  TRACK 51 AUDIO
    TITLE "6:cjc030_06146"
    INDEX 01 00:43:01
  TRACK 52 AUDIO
    TITLE "0:"
    INDEX 01 00:44:44
  TRACK 53 AUDIO
    TITLE "3:cjc030_06147"
    INDEX 01 00:45:20
  TRACK 54 AUDIO
    TITLE "0:"
    INDEX 01 00:46:31
  TRACK 55 AUDIO
    TITLE "4:cjc030_06148"
    INDEX 01 00:46:39
  TRACK 56 AUDIO
    TITLE "0:"
    INDEX 01 00:47:40
  TRACK 57 AUDIO
    TITLE "5:cjc030_06149"
    INDEX 01 00:47:48
  TRACK 58 AUDIO
    TITLE "0:"
    INDEX 01 00:48:61
  TRACK 59 AUDIO
    TITLE "6:cjc030_06150"
    INDEX 01 00:48:73
  TRACK 60 AUDIO
    TITLE "0:"
    INDEX 01 00:53:68
  TRACK 61 AUDIO
    TITLE "3:cjc030_06151"
    INDEX 01 00:54:42
  TRACK 62 AUDIO
    TITLE "0:"
    INDEX 01 00:55:65
  TRACK 63 AUDIO
    TITLE "4:cjc030_06152"
    INDEX 01 00:56:00
  TRACK 64 AUDIO
    TITLE "0:"
    INDEX 01 00:56:63
  TRACK 65 AUDIO
    TITLE "5:cjc030_06153"
    INDEX 01 00:56:69
  TRACK 66 AUDIO
    TITLE "0:"
    INDEX 01 00:58:22
